<svg width="20" height="20" viewBox="0 0 20 20" fill="none" xmlns="http://www.w3.org/2000/svg">
<path d="M8.82585 2.09418C9.57886 1.78888 10.4212 1.78888 11.1742 2.09418L17.4225 4.62751C17.6917 4.73653 17.9221 4.92341 18.0844 5.16422C18.2467 5.40503 18.3334 5.6888 18.3334 5.97918V14.0233C18.3332 14.3136 18.2464 14.5972 18.0842 14.8378C17.9219 15.0785 17.6915 15.2652 17.4225 15.3742L11.1742 17.9075C10.4212 18.2128 9.57886 18.2128 8.82585 17.9075L2.57752 15.3742C2.30838 15.2652 2.07791 15.0783 1.91564 14.8375C1.75337 14.5967 1.66669 14.3129 1.66669 14.0225V5.98001C1.66669 5.68963 1.75337 5.40586 1.91564 5.16505C2.07791 4.92425 2.30838 4.73736 2.57752 4.62835L8.82585 2.09501V2.09418ZM10.7042 3.25251C10.2526 3.06951 9.74746 3.06951 9.29585 3.25251L7.70002 3.90001L13.9725 6.33918L16.1967 5.48085L10.7034 3.25335L10.7042 3.25251ZM12.2425 7.00668L6.01252 4.58335L3.82502 5.47001L10.0009 7.87168L12.2425 7.00668ZM2.91669 14.0233C2.9168 14.0647 2.92922 14.1051 2.95237 14.1394C2.97552 14.1737 3.00835 14.2003 3.04669 14.2158L9.29585 16.7492C9.32169 16.76 9.34835 16.77 9.37502 16.7792V8.97001L2.91669 6.45835V14.0233ZM10.7042 16.7492L16.9534 14.2158C16.9918 14.2002 17.0247 14.1735 17.0479 14.139C17.0711 14.1046 17.0834 14.064 17.0834 14.0225V6.47835L10.625 8.97168V16.78C10.6516 16.7706 10.678 16.7606 10.7042 16.75V16.7492Z" fill="#0B1524" fill-opacity="0.66"/>
</svg>
