<svg width="32" height="28" viewBox="0 0 32 28" fill="none" xmlns="http://www.w3.org/2000/svg">
<path d="M12.0001 26C13.1001 26 14.0001 25.1 14.0001 24H10.0001C10.0001 25.1 10.8901 26 12.0001 26ZM18.0001 20V15C18.0001 11.93 16.3601 9.36 13.5001 8.68V8C13.5001 7.17 12.8301 6.5 12.0001 6.5C11.1701 6.5 10.5001 7.17 10.5001 8V8.68C7.63005 9.36 6.00005 11.92 6.00005 15V20L4.71005 21.29C4.08005 21.92 4.52005 23 5.41005 23H18.5801C19.4701 23 19.9201 21.92 19.2901 21.29L18.0001 20Z" fill="#0B1524" fill-opacity="0.46"/>
<g clip-path="url(#clip0_58_160)">
<path d="M26 8C26 12.4183 22.4183 16 18 16C13.5817 16 10 12.4183 10 8C10 3.58172 13.5817 0 18 0C22.4183 0 26 3.58172 26 8Z" fill="#FF4E3D"/>
<path d="M32 8C32 12.4183 28.4183 16 24 16C19.5817 16 16 12.4183 16 8C16 3.58172 19.5817 0 24 0C28.4183 0 32 3.58172 32 8Z" fill="#FF4E3D"/>
<path d="M18 0H24V16H18V0Z" fill="#FF4E3D"/>
<path d="M17.2192 8.27783L16.4243 8.07373L16.8164 4.17969H20.8286V5.09814H17.6597L17.4233 7.2251C17.5666 7.14274 17.7474 7.06576 17.9658 6.99414C18.1878 6.92253 18.4421 6.88672 18.7285 6.88672C19.0902 6.88672 19.4142 6.94938 19.7007 7.07471C19.9871 7.19645 20.2306 7.37191 20.4312 7.60107C20.6353 7.83024 20.791 8.10596 20.8984 8.42822C21.0059 8.75049 21.0596 9.11035 21.0596 9.50781C21.0596 9.88379 21.0076 10.2293 20.9038 10.5444C20.8035 10.8595 20.6514 11.1353 20.4473 11.3716C20.2432 11.6043 19.9854 11.7852 19.6738 11.9141C19.3659 12.043 19.0024 12.1074 18.5835 12.1074C18.2684 12.1074 17.9694 12.0645 17.6865 11.9785C17.4072 11.889 17.1566 11.7547 16.9346 11.5757C16.7161 11.3931 16.5371 11.1675 16.3975 10.8989C16.2614 10.6268 16.1755 10.3081 16.1396 9.94287H17.085C17.1279 10.2365 17.2139 10.4836 17.3428 10.6841C17.4717 10.8846 17.64 11.0368 17.8477 11.1406C18.0589 11.2409 18.3042 11.291 18.5835 11.291C18.8198 11.291 19.0293 11.2498 19.2119 11.1675C19.3945 11.0851 19.5485 10.967 19.6738 10.813C19.7992 10.659 19.894 10.4728 19.9585 10.2544C20.0265 10.036 20.0605 9.79069 20.0605 9.51855C20.0605 9.27148 20.0265 9.04232 19.9585 8.83105C19.8905 8.61979 19.7884 8.43538 19.6523 8.27783C19.5199 8.12028 19.3569 7.99854 19.1636 7.9126C18.9702 7.82308 18.7482 7.77832 18.4976 7.77832C18.1646 7.77832 17.9121 7.82308 17.7402 7.9126C17.5719 8.00212 17.3983 8.12386 17.2192 8.27783ZM27.4351 9.36816V10.1846H21.7847V9.59912L25.2866 4.17969H26.0977L25.2275 5.74805L22.9126 9.36816H27.4351ZM26.3447 4.17969V12H25.3511V4.17969H26.3447Z" fill="white"/>
</g>
<defs>
<clipPath id="clip0_58_160">
<rect width="22" height="16" fill="white" transform="translate(10)"/>
</clipPath>
</defs>
</svg>
