<svg width="111" height="32" viewBox="0 0 111 32" fill="none" xmlns="http://www.w3.org/2000/svg">
<g clip-path="url(#clip0_1_793)">
<path d="M110.383 28.3095C110.383 30.0148 108.97 31.3962 107.222 31.3962H3.7817C2.03472 31.3962 0.616699 30.0148 0.616699 28.3095V3.69442C0.616699 1.98991 2.03472 0.603729 3.7817 0.603729H107.222C108.97 0.603729 110.383 1.98991 110.383 3.69442L110.383 28.3095Z" fill="#212835"/>
<path d="M106.889 0.64097C108.792 0.64097 110.341 2.14797 110.341 3.99997V28C110.341 29.852 108.792 31.359 106.889 31.359H4.11111C2.20767 31.359 0.658805 29.852 0.658805 28V3.99997C0.658805 2.14797 2.20767 0.64097 4.11111 0.64097H106.889ZM106.889 -2.86102e-05H4.11111C1.85103 -2.86102e-05 0 1.80097 0 3.99997V28C0 30.199 1.85103 32 4.11111 32H106.889C109.149 32 111 30.199 111 28V3.99997C111 1.80097 109.149 -2.86102e-05 106.889 -2.86102e-05Z" fill="#0B1524" fill-opacity="0.14"/>
<path d="M24.7719 15.8271C24.7481 13.2487 26.9418 11.9943 27.0421 11.9359C25.7997 10.1735 23.8741 9.93274 23.1974 9.91354C21.5801 9.74794 20.0113 10.8551 19.1874 10.8551C18.3471 10.8551 17.0784 9.92954 15.7111 9.95674C13.9515 9.98314 12.3054 10.9743 11.4026 12.5135C9.53946 15.6519 10.929 20.2639 12.7141 22.8007C13.607 24.0431 14.6504 25.4303 16.0161 25.3815C17.3522 25.3279 17.8513 24.5527 19.4637 24.5527C21.0613 24.5527 21.5299 25.3815 22.9228 25.3503C24.3567 25.3279 25.2595 24.1023 26.1212 22.8487C27.1531 21.4247 27.5675 20.0223 27.5839 19.9503C27.5502 19.9391 24.7991 18.9175 24.7719 15.8271Z" fill="white"/>
<path d="M22.1408 8.24474C22.8595 7.37034 23.3511 6.18074 23.2147 4.97354C22.1745 5.01834 20.8738 5.67354 20.1247 6.52874C19.462 7.28234 18.87 8.51754 19.023 9.67914C20.1913 9.76394 21.391 9.10554 22.1408 8.24474Z" fill="white"/>
<path d="M44.108 25.2032H42.2408L41.2179 22.076H37.6626L36.6883 25.2032H34.8704L38.3928 14.5568H40.5684L44.108 25.2032ZM40.9096 20.764L39.9846 17.984C39.8867 17.7 39.7034 17.0312 39.4329 15.9784H39.4C39.2923 16.4312 39.1188 17.1 38.8803 17.984L37.9718 20.764H40.9096Z" fill="white"/>
<path d="M53.1665 21.2704C53.1665 22.576 52.8039 23.608 52.0787 24.3656C51.4292 25.04 50.6226 25.3768 49.6597 25.3768C48.6204 25.3768 47.8739 25.0136 47.4192 24.2872H47.3863V28.3312H45.6333V20.0536C45.6333 19.2328 45.6111 18.3904 45.5684 17.5264H47.11L47.2079 18.7432H47.2408C47.8254 17.8264 48.7125 17.3688 49.9031 17.3688C50.8339 17.3688 51.6109 17.7264 52.2325 18.4424C52.8557 19.1592 53.1665 20.1016 53.1665 21.2704ZM51.3806 21.3328C51.3806 20.5856 51.208 19.9696 50.861 19.4848C50.482 18.9792 49.973 18.7264 49.335 18.7264C48.9025 18.7264 48.5094 18.8672 48.1584 19.1448C47.8064 19.4248 47.5762 19.7904 47.4685 20.2432C47.4142 20.4544 47.3871 20.6272 47.3871 20.7632V22.0432C47.3871 22.6016 47.5631 23.0728 47.915 23.4576C48.2669 23.8424 48.724 24.0344 49.2864 24.0344C49.9467 24.0344 50.4606 23.7864 50.8281 23.292C51.1965 22.7968 51.3806 22.144 51.3806 21.3328Z" fill="white"/>
<path d="M62.2413 21.2704C62.2413 22.576 61.8787 23.608 61.1526 24.3656C60.5039 25.04 59.6973 25.3768 58.7345 25.3768C57.6952 25.3768 56.9486 25.0136 56.4947 24.2872H56.4619V28.3312H54.7089V20.0536C54.7089 19.2328 54.6867 18.3904 54.6439 17.5264H56.1856L56.2834 18.7432H56.3163C56.9001 17.8264 57.7873 17.3688 58.9787 17.3688C59.9086 17.3688 60.6856 17.7264 61.3089 18.4424C61.9296 19.1592 62.2413 20.1016 62.2413 21.2704ZM60.4554 21.3328C60.4554 20.5856 60.2819 19.9696 59.9349 19.4848C59.5559 18.9792 59.0486 18.7264 58.4097 18.7264C57.9764 18.7264 57.5842 18.8672 57.2323 19.1448C56.8804 19.4248 56.651 19.7904 56.5433 20.2432C56.4898 20.4544 56.4619 20.6272 56.4619 20.7632V22.0432C56.4619 22.6016 56.6378 23.0728 56.9881 23.4576C57.34 23.8416 57.7971 24.0344 58.3612 24.0344C59.0214 24.0344 59.5353 23.7864 59.9029 23.292C60.2712 22.7968 60.4554 22.144 60.4554 21.3328Z" fill="white"/>
<path d="M72.3875 22.2176C72.3875 23.1232 72.0644 23.86 71.4156 24.4288C70.7028 25.0504 69.7104 25.3608 68.4351 25.3608C67.2577 25.3608 66.3138 25.14 65.5992 24.6976L66.0054 23.276C66.775 23.7288 67.6194 23.956 68.5395 23.956C69.1998 23.956 69.7136 23.8104 70.0828 23.5208C70.4504 23.2312 70.6337 22.8424 70.6337 22.3576C70.6337 21.9256 70.4824 21.5616 70.179 21.2664C69.8773 20.9712 69.3732 20.6968 68.6694 20.4432C66.7536 19.748 65.7966 18.7296 65.7966 17.3904C65.7966 16.5152 66.132 15.7976 66.8038 15.2392C67.4731 14.68 68.366 14.4008 69.4826 14.4008C70.4783 14.4008 71.3055 14.5696 71.9657 14.9064L71.5275 16.2968C70.9108 15.9704 70.2136 15.8072 69.4333 15.8072C68.8166 15.8072 68.3348 15.9552 67.9894 16.2496C67.6976 16.5128 67.5512 16.8336 67.5512 17.2136C67.5512 17.6344 67.7181 17.9824 68.0536 18.256C68.3455 18.5088 68.8758 18.7824 69.6454 19.0776C70.5868 19.4464 71.2783 19.8776 71.7232 20.372C72.1663 20.8648 72.3875 21.4816 72.3875 22.2176Z" fill="white"/>
<path d="M78.1834 18.8065H76.2511V22.5337C76.2511 23.4817 76.5915 23.9553 77.274 23.9553C77.5873 23.9553 77.8471 23.9289 78.0526 23.8761L78.1011 25.1713C77.7558 25.2969 77.3011 25.3601 76.7379 25.3601C76.0456 25.3601 75.5046 25.1545 75.114 24.7441C74.7251 24.3329 74.5294 23.6433 74.5294 22.6745V18.8049H73.3783V17.5249H74.5294V16.1193L76.2511 15.6137V17.5249H78.1834V18.8065Z" fill="white"/>
<path d="M86.9014 21.3016C86.9014 22.4816 86.5544 23.4504 85.8621 24.208C85.1361 24.988 84.1725 25.3768 82.9712 25.3768C81.8135 25.3768 80.8918 25.0032 80.2044 24.256C79.517 23.5088 79.1733 22.5656 79.1733 21.4288C79.1733 20.2392 79.5269 19.2648 80.2365 18.5072C80.9444 17.7488 81.8998 17.3696 83.1011 17.3696C84.2588 17.3696 85.1904 17.7432 85.8934 18.4912C86.5659 19.2168 86.9014 20.1536 86.9014 21.3016ZM85.0826 21.3568C85.0826 20.6488 84.9272 20.0416 84.6123 19.5352C84.2448 18.9224 83.7194 18.6168 83.0386 18.6168C82.334 18.6168 81.7987 18.9232 81.4312 19.5352C81.1163 20.0424 80.9609 20.6592 80.9609 21.3888C80.9609 22.0968 81.1163 22.704 81.4312 23.2096C81.8102 23.8224 82.3397 24.128 83.023 24.128C83.6923 24.128 84.2177 23.816 84.5967 23.1936C84.9198 22.6776 85.0826 22.064 85.0826 21.3568Z" fill="white"/>
<path d="M92.5994 19.0264C92.4259 18.9952 92.2409 18.9792 92.0468 18.9792C91.4302 18.9792 90.9533 19.2056 90.6178 19.6592C90.3259 20.0592 90.1796 20.5648 90.1796 21.1752V25.2032H88.4274L88.4438 19.944C88.4438 19.0592 88.4216 18.2536 88.3781 17.5272H89.9049L89.9691 18.996H90.0176C90.2026 18.4912 90.4945 18.0848 90.8941 17.78C91.2846 17.5056 91.7064 17.3688 92.1611 17.3688C92.3231 17.3688 92.4694 17.38 92.5994 17.4V19.0264Z" fill="white"/>
<path d="M100.439 21.0016C100.439 21.3072 100.419 21.5648 100.375 21.7752H95.1162C95.1368 22.5336 95.3908 23.1136 95.8792 23.5136C96.3224 23.8712 96.8955 24.0504 97.5993 24.0504C98.378 24.0504 99.0884 23.9296 99.7272 23.6872L100.002 24.8712C99.2553 25.188 98.3738 25.3456 97.3568 25.3456C96.1333 25.3456 95.1729 24.9952 94.4741 24.2952C93.7768 23.5952 93.4274 22.6552 93.4274 21.476C93.4274 20.3184 93.7521 19.3544 94.4025 18.5856C95.0833 17.7648 96.0034 17.3544 97.1611 17.3544C98.2982 17.3544 99.1591 17.7648 99.7437 18.5856C100.207 19.2376 100.439 20.044 100.439 21.0016ZM98.7677 20.5592C98.7792 20.0536 98.6649 19.6168 98.4273 19.248C98.1239 18.7736 97.6577 18.5368 97.0303 18.5368C96.4573 18.5368 95.9911 18.768 95.635 19.232C95.3431 19.6008 95.1697 20.0432 95.1162 20.5584H98.7677V20.5592Z" fill="white"/>
<path d="M40.33 8.00721C40.33 8.94881 40.0398 9.65761 39.4601 10.1336C38.9232 10.5728 38.1602 10.7928 37.1718 10.7928C36.6818 10.7928 36.2625 10.772 35.9114 10.7304V5.58561C36.3694 5.51361 36.8627 5.47681 37.3955 5.47681C38.3369 5.47681 39.0465 5.67601 39.525 6.07441C40.0611 6.52481 40.33 7.16881 40.33 8.00721ZM39.4214 8.03041C39.4214 7.42001 39.2554 6.95201 38.9232 6.62561C38.591 6.30001 38.1059 6.13681 37.467 6.13681C37.1957 6.13681 36.9646 6.15441 36.7731 6.19121V10.1024C36.8791 10.1184 37.0732 10.1256 37.3552 10.1256C38.0146 10.1256 38.5236 9.94721 38.8821 9.59041C39.2406 9.23361 39.4214 8.71361 39.4214 8.03041Z" fill="white"/>
<path d="M45.1474 8.82951C45.1474 9.40951 44.9772 9.88471 44.6368 10.2575C44.28 10.6407 43.8072 10.8319 43.2168 10.8319C42.6478 10.8319 42.1948 10.6487 41.8569 10.2807C41.5198 9.91351 41.3512 9.45031 41.3512 8.89191C41.3512 8.30791 41.5247 7.82872 41.8733 7.45672C42.2219 7.08472 42.6906 6.89832 43.281 6.89832C43.8499 6.89832 44.3071 7.08152 44.6532 7.44872C44.9821 7.80552 45.1474 8.26631 45.1474 8.82951ZM44.2536 8.85671C44.2536 8.50872 44.1764 8.21031 44.0226 7.96151C43.8417 7.66071 43.5844 7.51031 43.2497 7.51031C42.9036 7.51031 42.6404 7.66071 42.4596 7.96151C42.305 8.21031 42.2285 8.51352 42.2285 8.87191C42.2285 9.21991 42.3058 9.51831 42.4596 9.76711C42.6462 10.0679 42.906 10.2183 43.2415 10.2183C43.5704 10.2183 43.8286 10.0655 44.0144 9.75911C44.1739 9.50552 44.2536 9.20472 44.2536 8.85671Z" fill="white"/>
<path d="M51.6067 6.97525L50.394 10.7465H49.6046L49.1023 9.10885C48.9748 8.70005 48.8712 8.29365 48.7906 7.89045H48.775C48.7002 8.30485 48.5966 8.71045 48.4634 9.10885L47.9298 10.7465H47.1314L45.991 6.97525H46.8765L47.3147 8.76805C47.4208 9.19205 47.508 9.59605 47.5779 9.97845H47.5935C47.6576 9.66325 47.7637 9.26165 47.9133 8.77605L48.4634 6.97605H49.1656L49.6926 8.73765C49.8201 9.16725 49.9237 9.58085 50.0034 9.97925H50.0273C50.0856 9.59125 50.1736 9.17765 50.2904 8.73765L50.7607 6.97605H51.6067V6.97525Z" fill="white"/>
<path d="M56.0739 10.7465H55.2122V8.58646C55.2122 7.92086 54.9524 7.58806 54.4311 7.58806C54.1754 7.58806 53.969 7.67926 53.8087 7.86246C53.65 8.04566 53.5694 8.26166 53.5694 8.50886V10.7457H52.7078V8.05286C52.7078 7.72166 52.6971 7.36246 52.6765 6.97366H53.4338L53.4741 7.56326H53.4979C53.5982 7.38006 53.7479 7.22886 53.9444 7.10806C54.1779 6.96726 54.4394 6.89606 54.7255 6.89606C55.0873 6.89606 55.3882 7.00966 55.6275 7.23766C55.9251 7.51686 56.0739 7.93366 56.0739 8.48726V10.7465Z" fill="white"/>
<path d="M58.4501 10.7464H57.5892V5.24481H58.4501V10.7464Z" fill="white"/>
<path d="M63.5233 8.82951C63.5233 9.40951 63.3531 9.88471 63.0127 10.2575C62.6558 10.6407 62.1822 10.8319 61.5927 10.8319C61.0229 10.8319 60.5698 10.6487 60.2327 10.2807C59.8956 9.91351 59.7271 9.45031 59.7271 8.89191C59.7271 8.30791 59.9005 7.82872 60.2492 7.45672C60.5978 7.08472 61.0665 6.89832 61.656 6.89832C62.2258 6.89832 62.6821 7.08152 63.0291 7.44872C63.358 7.80552 63.5233 8.26631 63.5233 8.82951ZM62.6287 8.85671C62.6287 8.50872 62.5514 8.21031 62.3976 7.96151C62.2176 7.66071 61.9594 7.51031 61.6256 7.51031C61.2786 7.51031 61.0155 7.66071 60.8354 7.96151C60.6808 8.21031 60.6044 8.51352 60.6044 8.87191C60.6044 9.21991 60.6817 9.51831 60.8354 9.76711C61.0221 10.0679 61.2819 10.2183 61.6173 10.2183C61.9462 10.2183 62.2036 10.0655 62.3894 9.75911C62.5497 9.50552 62.6287 9.20472 62.6287 8.85671Z" fill="white"/>
<path d="M67.6936 10.7463H66.9199L66.8557 10.3119H66.8319C66.5671 10.6583 66.1897 10.8319 65.6997 10.8319C65.3338 10.8319 65.0378 10.7175 64.815 10.4903C64.6127 10.2839 64.5116 10.0271 64.5116 9.72231C64.5116 9.26151 64.7089 8.91031 65.1061 8.66711C65.5024 8.42391 66.0598 8.30471 66.7776 8.31031V8.23992C66.7776 7.74312 66.5096 7.49512 65.9727 7.49512C65.5904 7.49512 65.2532 7.58872 64.9622 7.77432L64.787 7.22392C65.1472 7.00712 65.592 6.89832 66.1166 6.89832C67.1296 6.89832 67.6377 7.41832 67.6377 8.45831V9.84711C67.6377 10.2239 67.6566 10.5239 67.6936 10.7463ZM66.799 9.45031V8.86872C65.8485 8.85272 65.3733 9.10632 65.3733 9.62872C65.3733 9.82551 65.4276 9.97271 65.5386 10.0711C65.6496 10.1695 65.791 10.2183 65.9595 10.2183C66.1486 10.2183 66.3254 10.1599 66.4866 10.0439C66.6485 9.92711 66.748 9.77911 66.785 9.59751C66.7941 9.55671 66.799 9.50711 66.799 9.45031Z" fill="white"/>
<path d="M72.5899 10.7464H71.8252L71.7849 10.1408H71.7611C71.5169 10.6016 71.1008 10.832 70.5162 10.832C70.0492 10.832 69.6603 10.6536 69.352 10.2968C69.0436 9.94001 68.8899 9.47681 68.8899 8.90801C68.8899 8.29761 69.0568 7.80321 69.3923 7.42561C69.717 7.07361 70.115 6.89761 70.5886 6.89761C71.1091 6.89761 71.4733 7.06801 71.6805 7.40961H71.697V5.24481H72.5595V9.73041C72.5595 10.0976 72.5693 10.436 72.5899 10.7464ZM71.697 9.15601V8.52721C71.697 8.41841 71.6887 8.33041 71.6731 8.26321C71.6246 8.06161 71.5202 7.89201 71.3615 7.75521C71.2012 7.61841 71.0079 7.54961 70.7851 7.54961C70.4636 7.54961 70.212 7.67361 70.027 7.92241C69.8437 8.17121 69.7508 8.48881 69.7508 8.87681C69.7508 9.24961 69.8387 9.55201 70.0155 9.78481C70.2022 10.0328 70.4538 10.1568 70.7687 10.1568C71.0515 10.1568 71.2776 10.0536 71.4495 9.84641C71.6156 9.65521 71.697 9.42481 71.697 9.15601Z" fill="white"/>
<path d="M79.9595 8.82951C79.9595 9.40951 79.7893 9.88471 79.4489 10.2575C79.0921 10.6407 78.6201 10.8319 78.029 10.8319C77.4608 10.8319 77.0078 10.6487 76.669 10.2807C76.3319 9.91351 76.1633 9.45031 76.1633 8.89191C76.1633 8.30791 76.3368 7.82872 76.6854 7.45672C77.0341 7.08472 77.5027 6.89832 78.0939 6.89832C78.6621 6.89832 79.12 7.08152 79.4654 7.44872C79.7943 7.80552 79.9595 8.26631 79.9595 8.82951ZM79.0666 8.85671C79.0666 8.50872 78.9893 8.21031 78.8355 7.96151C78.6538 7.66071 78.3973 7.51031 78.0618 7.51031C77.7165 7.51031 77.4534 7.66071 77.2717 7.96151C77.1171 8.21031 77.0406 8.51352 77.0406 8.87191C77.0406 9.21991 77.1179 9.51831 77.2717 9.76711C77.4583 10.0679 77.7182 10.2183 78.0536 10.2183C78.3825 10.2183 78.6415 10.0655 78.8273 9.75911C78.986 9.50552 79.0666 9.20472 79.0666 8.85671Z" fill="white"/>
<path d="M84.5928 10.7465H83.7319V8.58646C83.7319 7.92086 83.4721 7.58806 82.95 7.58806C82.6943 7.58806 82.4879 7.67926 82.3284 7.86246C82.1689 8.04566 82.0891 8.26166 82.0891 8.50886V10.7457H81.2266V8.05286C81.2266 7.72166 81.2167 7.36246 81.1962 6.97366H81.9526L81.9929 7.56326H82.0167C82.1179 7.38006 82.2675 7.22886 82.4632 7.10806C82.6975 6.96726 82.9582 6.89606 83.2451 6.89606C83.6061 6.89606 83.907 7.00966 84.1463 7.23766C84.4448 7.51686 84.5928 7.93366 84.5928 8.48726V10.7465Z" fill="white"/>
<path d="M90.3918 7.60315H89.443V9.43515C89.443 9.90075 89.6116 10.1335 89.9454 10.1335C90.1 10.1335 90.2282 10.1207 90.3294 10.0943L90.3516 10.7304C90.1814 10.7928 89.9577 10.8239 89.6823 10.8239C89.3419 10.8239 89.0771 10.7232 88.8855 10.5216C88.6931 10.32 88.5978 9.98075 88.5978 9.50475V7.60315H88.0312V6.97515H88.5978V6.28395L89.4422 6.03595V6.97435H90.391V7.60315H90.3918Z" fill="white"/>
<path d="M94.9536 10.7464H94.0911V8.60241C94.0911 7.92641 93.8313 7.58801 93.3108 7.58801C92.9112 7.58801 92.6382 7.78401 92.4886 8.17601C92.4631 8.25841 92.4483 8.35921 92.4483 8.47761V10.7456H91.5874V5.24481H92.4483V7.51761H92.4647C92.7361 7.10401 93.125 6.89761 93.629 6.89761C93.9858 6.89761 94.281 7.01121 94.5154 7.23921C94.8072 7.52321 94.9536 7.94561 94.9536 8.50401V10.7464Z" fill="white"/>
<path d="M99.6591 8.68243C99.6591 8.83283 99.6476 8.95923 99.627 9.06243H97.0428C97.0543 9.43523 97.1776 9.71924 97.4169 9.91603C97.6356 10.092 97.9176 10.18 98.2629 10.18C98.6453 10.18 98.9939 10.1208 99.308 10.0016L99.4428 10.584C99.0753 10.7392 98.6428 10.8168 98.1421 10.8168C97.5418 10.8168 97.0691 10.6448 96.727 10.3008C96.3833 9.95684 96.2131 9.49524 96.2131 8.91604C96.2131 8.34724 96.3718 7.87363 96.6917 7.49603C97.0255 7.09283 97.4769 6.89124 98.0467 6.89124C98.6042 6.89124 99.0276 7.09283 99.3137 7.49603C99.5448 7.81603 99.6591 8.21203 99.6591 8.68243ZM98.8368 8.46563C98.8434 8.21683 98.7867 8.00244 98.6699 7.82164C98.5203 7.58884 98.2925 7.47204 97.9842 7.47204C97.703 7.47204 97.4736 7.58564 97.2985 7.81364C97.1554 7.99524 97.0707 8.21203 97.0428 8.46563H98.8368Z" fill="white"/>
</g>
<defs>
<clipPath id="clip0_1_793">
<rect width="111" height="32" fill="white"/>
</clipPath>
</defs>
</svg>
